<?xml version="1.0" standalone="no"?>
<!DOCTYPE svg PUBLIC "-//W3C//DTD SVG 20010904//EN"
 "http://www.w3.org/TR/2001/REC-SVG-20010904/DTD/svg10.dtd">
<svg version="1.0" xmlns="http://www.w3.org/2000/svg"
 width="389.000000pt" height="389.000000pt" viewBox="0 0 389.000000 389.000000"
 preserveAspectRatio="xMidYMid meet">
<metadata>
Created by potrace 1.14, written by Peter Selinger 2001-2017
</metadata>
<g transform="translate(0.000000,389.000000) scale(0.100000,-0.100000)"
fill="#000000" stroke="none">
<path d="M2777 2857 c-8 -13 -16 -32 -18 -42 -3 -12 -29 -32 -68 -53 -58 -29
-65 -31 -81 -17 -9 8 -20 15 -24 15 -10 0 -56 51 -56 61 0 17 -19 9 -25 -11
-7 -23 -35 -27 -35 -6 0 12 -7 12 -36 4 -28 -7 -39 -7 -44 3 -6 9 -15 4 -34
-16 -21 -22 -29 -25 -40 -16 -11 10 -16 9 -24 -5 -11 -19 -42 -13 -42 8 0 9 3
9 10 -2 14 -22 23 -5 10 19 -6 12 -19 21 -30 21 -16 0 -19 -8 -19 -47 0 -68
-5 -102 -13 -96 -5 2 -8 -16 -8 -41 0 -25 -5 -48 -10 -51 -7 -4 -9 3 -6 20 3
16 -3 39 -15 58 -10 18 -19 25 -19 17 1 -8 7 -23 14 -33 19 -25 9 -59 -14 -52
-10 3 -21 1 -25 -5 -3 -5 1 -10 9 -10 8 0 17 -3 20 -8 2 -4 -13 -6 -34 -4 -30
3 -41 -1 -55 -20 -13 -16 -16 -18 -11 -5 4 12 -3 29 -19 49 -28 34 -33 53 -9
44 12 -4 14 -1 9 14 -4 11 -2 20 3 20 5 0 12 25 15 57 3 31 12 60 19 64 7 4 9
11 5 16 -10 9 -26 -14 -34 -49 -6 -29 -17 -36 -28 -18 -3 6 -19 10 -36 10 -27
0 -29 -3 -29 -37 0 -20 6 -44 14 -52 7 -9 21 -39 30 -67 14 -43 53 -94 71 -94
3 0 10 11 15 24 9 24 7 24 130 29 31 2 35 -1 41 -28 5 -21 7 -23 8 -9 0 12 11
26 24 33 21 11 21 11 0 6 -29 -8 -36 7 -15 36 9 13 17 30 17 39 1 8 2 26 3 40
2 20 4 22 12 10 5 -8 7 -23 4 -32 -3 -10 4 -27 15 -39 19 -21 19 -23 3 -36
-15 -13 -15 -13 7 -7 16 4 21 3 17 -5 -4 -7 1 -11 13 -11 13 0 21 -7 21 -16 0
-21 28 -43 54 -44 11 0 17 3 13 6 -9 10 17 32 31 26 7 -2 29 13 49 34 20 22
31 30 24 19 -6 -11 -20 -33 -30 -50 -20 -33 -18 -49 12 -82 24 -27 78 -31 97
-8 11 13 10 79 -2 148 -4 22 -26 37 -45 30 -7 -3 -13 0 -13 7 0 6 5 8 10 5 6
-3 10 -1 10 6 0 7 3 9 7 6 3 -4 12 -2 20 4 7 6 13 9 13 5 0 -3 11 -1 25 4 20
8 25 6 25 -7 0 -9 -8 -26 -18 -37 -14 -16 -16 -30 -11 -61 3 -22 7 -33 8 -24
0 9 13 21 28 28 33 15 44 1 33 -40 -5 -16 -5 -29 -1 -29 5 0 12 15 17 33 5 17
19 36 31 41 25 11 53 65 53 102 0 21 -3 24 -25 18 -21 -5 -25 -3 -25 15 0 12
6 21 15 21 8 0 15 7 15 16 0 14 3 14 15 4 13 -11 15 -8 15 13 0 24 1 25 33 14
17 -6 33 -12 33 -12 1 0 5 -15 9 -34 5 -26 4 -32 -6 -26 -9 6 -11 3 -6 -9 4
-10 0 -42 -9 -73 -23 -78 -10 -77 16 1 25 77 44 96 34 37 -4 -25 -3 -41 3 -41
6 0 13 -13 16 -30 7 -32 32 -33 41 -2 14 52 16 92 5 92 -7 0 -9 11 -5 33 4 17
10 50 13 72 3 22 11 43 17 47 6 5 2 8 -11 8 -17 0 -27 -10 -38 -36 -8 -20 -15
-45 -15 -55 0 -22 -8 -23 -33 -4 -24 17 -19 61 6 57 17 -3 23 15 9 33 -4 6
-14 11 -24 13 -12 2 -15 -3 -11 -19 6 -20 4 -20 -18 -8 -13 7 -27 13 -30 12
-3 -1 -4 8 -2 21 4 17 -1 25 -16 29 -12 3 -24 1 -27 -4 -9 -15 -27 -10 -20 6
8 22 0 18 -17 -8z m-496 -121 c10 6 12 -9 2 -19 -10 -10 -34 14 -26 26 5 8 8
7 11 -1 2 -7 8 -10 13 -6z m184 -35 c3 -5 1 -12 -5 -16 -5 -3 -10 1 -10 9 0
18 6 21 15 7z m-105 -27 c0 -2 -9 -4 -21 -4 -11 0 -18 4 -14 10 5 8 35 3 35
-6z m-7 -38 c4 -10 0 -12 -14 -9 -22 6 -26 23 -5 23 8 0 16 -6 19 -14z"/>
<path d="M1333 2850 c1 -18 -3 -25 -14 -24 -12 1 -19 -10 -23 -37 -5 -32 -11
-40 -34 -45 -15 -4 -30 -12 -34 -18 -4 -6 -6 3 -5 19 2 25 -1 30 -20 28 -14
-2 -24 4 -28 18 -4 11 -21 25 -38 32 -60 25 -125 -6 -81 -37 16 -13 17 -17 5
-40 -8 -14 -22 -28 -33 -32 -20 -6 -25 -24 -5 -24 8 0 8 -3 -2 -9 -8 -5 -20
-7 -28 -4 -29 11 1 -28 48 -63 27 -20 54 -45 60 -55 5 -10 15 -19 22 -19 7 0
6 4 -3 10 -12 8 -10 10 8 10 13 0 21 -4 17 -10 -3 -5 4 -19 16 -31 l22 -22 17
23 c10 13 22 20 29 16 6 -4 11 -1 11 8 0 8 6 17 13 20 8 3 6 9 -7 20 -11 9
-16 19 -13 23 4 3 14 -2 22 -13 13 -16 16 -17 24 -4 9 12 19 7 58 -33 27 -26
55 -47 63 -47 10 0 11 3 3 11 -7 7 -9 25 -6 42 5 25 3 29 -10 24 -11 -4 -14
-2 -10 9 7 19 36 34 65 34 17 0 19 3 9 9 -9 6 -10 10 -2 12 7 3 9 12 5 22 -5
14 -9 15 -21 5 -12 -10 -18 -9 -29 6 -17 24 -11 34 18 29 18 -3 27 4 39 29 11
23 24 34 42 36 15 2 27 7 27 12 0 10 -40 23 -56 19 -29 -8 -101 16 -121 40
l-23 26 3 -25z m-20 -145 c0 -6 -7 -11 -16 -13 -12 -3 -15 1 -11 13 7 17 25
17 27 0z m-50 -41 c-6 -16 -33 -7 -33 11 0 17 23 25 32 12 3 -6 4 -16 1 -23z
m97 10 c0 -8 -4 -12 -10 -9 -5 3 -10 10 -10 16 0 5 5 9 10 9 6 0 10 -7 10 -16z
m26 -31 c-10 -10 -19 5 -10 18 6 11 8 11 12 0 2 -7 1 -15 -2 -18z m-301 -13
c3 -5 1 -10 -4 -10 -6 0 -11 5 -11 10 0 6 2 10 4 10 3 0 8 -4 11 -10z m135
-70 c0 -5 -8 -10 -17 -10 -15 0 -16 2 -3 10 19 12 20 12 20 0z"/>
<path d="M2144 2776 c-5 -19 -2 -32 10 -44 15 -15 16 -14 16 13 0 17 -4 37 -9
44 -8 12 -11 9 -17 -13z m13 -28 c-3 -8 -6 -5 -6 6 -1 11 2 17 5 13 3 -3 4
-12 1 -19z"/>
<path d="M1497 2762 c-2 -4 -10 -24 -17 -45 -13 -40 -2 -67 26 -67 11 0 11 7
-1 39 -12 34 -12 41 1 51 7 7 21 9 30 6 9 -4 14 -1 12 6 -5 13 -45 21 -51 10z"/>
<path d="M750 2750 c0 -5 7 -10 16 -10 8 0 12 5 9 10 -3 6 -10 10 -16 10 -5 0
-9 -4 -9 -10z"/>
<path d="M1578 2742 c-21 -4 -24 -32 -4 -32 8 0 17 7 20 16 8 20 6 21 -16 16z"/>
<path d="M1693 2716 c-28 -29 -29 -50 -5 -68 29 -22 63 -78 56 -91 -5 -9 -4
-9 6 0 11 10 10 19 -6 48 -10 19 -22 35 -25 35 -16 0 -18 33 -4 60 25 48 15
55 -22 16z"/>
<path d="M2861 2724 c0 -11 3 -14 6 -6 3 7 2 16 -1 19 -3 4 -6 -2 -5 -13z"/>
<path d="M2871 2691 c-7 -16 -11 -40 -9 -53 3 -17 7 -9 15 27 13 58 11 68 -6
26z"/>
<path d="M1726 2702 c-3 -6 -1 -14 5 -17 14 -9 20 -2 10 14 -6 8 -11 9 -15 3z"/>
<path d="M1552 2641 c0 -17 4 -31 9 -31 5 0 9 -7 9 -15 0 -8 4 -15 8 -15 17 0
21 13 11 31 -20 37 7 18 29 -21 24 -42 23 -50 -2 -24 -31 30 -18 -16 14 -53
17 -18 30 -38 30 -43 0 -5 11 -9 24 -8 20 2 23 5 15 20 -7 12 -6 18 1 18 6 0
-7 21 -29 48 -22 26 -47 64 -56 86 -15 35 -17 37 -29 20 -13 -17 -14 -17 -23
0 -8 15 -10 13 -11 -13z m118 -119 c0 -13 -12 -22 -22 -16 -10 6 -1 24 13 24
5 0 9 -4 9 -8z"/>
<path d="M941 2648 c0 -10 -9 -26 -20 -37 -21 -21 -61 -141 -61 -183 0 -16 -5
-39 -11 -50 -8 -15 -8 -22 1 -28 9 -6 11 -23 7 -59 -5 -45 -3 -54 18 -78 13
-16 25 -22 25 -15 0 18 20 15 20 -3 0 -14 58 -74 77 -78 4 -1 21 -14 37 -29
16 -15 33 -25 37 -22 4 2 10 0 14 -6 3 -5 14 -10 23 -10 9 0 27 -12 39 -27 14
-16 23 -21 23 -12 1 8 7 1 14 -16 7 -16 11 -33 9 -37 -2 -5 14 -8 37 -8 23 0
55 -7 71 -16 17 -8 33 -13 37 -10 3 3 -1 6 -9 6 -12 0 -11 2 1 11 13 9 13 10
0 7 -8 -1 -29 6 -47 15 -24 13 -33 14 -36 4 -4 -8 -8 -9 -14 -1 -4 6 -16 13
-25 17 -10 3 -18 11 -18 17 0 16 140 10 165 -7 11 -7 15 -13 10 -13 -6 0 -2
-5 8 -11 9 -5 22 -7 29 -3 7 5 9 2 5 -9 -4 -11 -2 -14 9 -10 7 3 14 0 14 -7 0
-6 5 -8 10 -5 6 3 10 -1 10 -10 0 -13 4 -14 20 -5 25 13 40 6 34 -18 -3 -10 4
-22 17 -30 11 -8 18 -9 15 -4 -3 6 1 13 10 16 21 8 26 8 20 -3 -6 -8 30 -25
47 -22 15 3 73 -38 93 -64 21 -28 68 -34 81 -11 4 7 15 16 23 19 9 3 3 6 -12
6 -16 1 -28 6 -28 12 0 7 -11 8 -31 4 -22 -5 -29 -4 -25 4 4 6 15 11 24 11 13
0 13 2 -4 15 -17 13 -16 14 14 4 25 -9 36 -9 45 0 8 8 5 11 -12 11 -17 0 -22
4 -17 16 3 9 6 20 6 25 0 6 5 7 12 3 7 -5 8 -3 4 5 -6 9 -13 8 -27 -5 -10 -9
-32 -17 -49 -16 -20 0 -30 -4 -30 -14 0 -8 4 -13 9 -9 5 3 12 1 16 -5 13 -20
-31 -9 -60 16 -16 14 -25 23 -18 20 6 -4 14 -2 18 4 3 5 2 10 -2 10 -9 0 -23
25 -44 73 l-12 29 -29 -32 c-16 -18 -32 -29 -35 -26 -4 3 -2 11 4 17 13 13 8
33 -20 73 l-20 29 36 -7 c21 -4 38 -2 42 4 3 6 10 8 15 5 18 -11 18 13 0 30
-16 14 -29 16 -77 10 -32 -4 -62 -12 -66 -19 -5 -6 -5 -1 -2 12 6 19 3 23 -12
22 -32 -4 -44 0 -38 10 4 6 22 9 42 5 25 -4 34 -2 31 7 -3 8 -17 12 -36 10
-18 -2 -32 1 -32 6 0 5 -9 12 -19 15 -13 3 -18 0 -15 -8 3 -7 0 -16 -6 -20 -8
-5 -5 -11 7 -21 12 -10 6 -9 -19 3 -21 9 -38 23 -38 30 0 7 -3 13 -7 13 -5 0
-16 14 -25 30 -9 17 -30 36 -45 43 -32 14 -57 37 -72 66 -15 26 -14 88 1 93 7
3 2 13 -12 26 -13 12 -18 22 -12 22 7 0 -8 20 -34 45 -25 25 -52 45 -60 45 -8
0 -20 13 -25 29 -6 18 -20 32 -34 35 -13 3 -26 14 -28 24 -4 16 -5 16 -6 0z
m54 -132 c0 -10 -10 -22 -22 -27 -20 -7 -23 -5 -23 15 0 12 3 26 7 30 13 13
38 1 38 -18z m125 -107 c0 -6 -4 -7 -10 -4 -5 3 -10 11 -10 16 0 6 5 7 10 4 6
-3 10 -11 10 -16z m-130 1 c0 -5 -4 -10 -10 -10 -5 0 -10 5 -10 10 0 6 5 10
10 10 6 0 10 -4 10 -10z m123 -110 c-3 -11 -14 -25 -24 -30 -14 -8 -19 -6 -24
10 -8 27 1 40 30 40 18 0 22 -4 18 -20z m-105 -19 c21 -13 10 -46 -16 -49 -27
-4 -40 22 -22 43 14 17 20 18 38 6z m92 -131 c0 -5 -4 -10 -9 -10 -6 0 -13 5
-16 10 -3 6 1 10 9 10 9 0 16 -4 16 -10z m30 -44 c0 -3 -4 -8 -10 -11 -5 -3
-10 -1 -10 4 0 6 5 11 10 11 6 0 10 -2 10 -4z m400 -6 c0 -5 -11 -10 -25 -10
-14 0 -25 -4 -25 -10 0 -19 -16 -10 -17 10 -1 16 4 20 33 20 19 0 34 -4 34
-10z m-120 -30 c11 -20 0 -26 -39 -20 -13 2 -13 0 0 -16 12 -15 12 -17 -1 -12
-8 3 -15 13 -15 24 0 10 -4 25 -8 32 -6 9 0 12 22 12 20 0 34 -7 41 -20z
m-250 -10 c0 -11 -4 -20 -9 -20 -11 0 -22 26 -14 34 12 12 23 5 23 -14z m292
-47 c-9 -4 -7 -12 8 -32 24 -35 16 -45 -17 -24 -16 10 -23 23 -20 34 3 10 2
20 -2 22 -3 2 -1 2 6 1 7 -2 15 1 19 7 3 6 9 7 13 3 3 -4 0 -9 -7 -11z m115
-80 c-8 -7 -37 9 -31 19 3 5 12 4 20 -3 8 -6 13 -14 11 -16z"/>
<path d="M1468 2600 c-22 -49 -22 -66 -3 -74 16 -6 48 31 39 46 -3 4 2 15 11
24 20 20 15 38 -11 42 -14 2 -24 -8 -36 -38z"/>
<path d="M2110 2609 c0 -5 5 -7 10 -4 6 3 10 8 10 11 0 2 -4 4 -10 4 -5 0 -10
-5 -10 -11z"/>
<path d="M2823 2602 c-6 -4 -17 -20 -23 -36 -9 -23 -8 -32 4 -44 12 -12 15
-11 21 7 3 11 13 21 22 21 10 0 13 6 9 16 -3 9 -6 22 -6 30 0 16 -9 18 -27 6z"/>
<path d="M2904 2555 c-10 -19 -22 -35 -27 -35 -5 0 1 -11 14 -25 38 -39 53
-33 45 18 -4 23 -7 50 -7 60 0 24 -3 22 -25 -18z"/>
<path d="M1580 2530 c-8 -4 -27 -13 -42 -19 -35 -13 -35 -19 3 -58 31 -34 69
-44 69 -19 0 8 8 17 17 21 15 5 12 9 -15 22 -30 15 -31 17 -17 33 18 20 8 32
-15 20z m-5 -70 c3 -5 2 -10 -4 -10 -5 0 -13 5 -16 10 -3 6 -2 10 4 10 5 0 13
-4 16 -10z"/>
<path d="M1810 2490 c0 -12 37 -14 44 -2 2 4 -6 9 -20 10 -13 1 -24 -3 -24 -8z"/>
<path d="M2380 2491 c0 -15 42 -41 53 -34 5 3 -1 14 -14 24 -27 21 -39 24 -39
10z"/>
<path d="M835 2479 c-10 -15 3 -25 16 -12 7 7 7 13 1 17 -6 3 -14 1 -17 -5z"/>
<path d="M1412 2478 c2 -6 12 -12 22 -14 14 -2 15 0 5 12 -14 17 -32 19 -27 2z"/>
<path d="M1716 2477 c3 -10 9 -15 12 -12 3 3 0 11 -7 18 -10 9 -11 8 -5 -6z"/>
<path d="M2104 2465 c11 -8 24 -15 30 -15 5 0 1 7 -10 15 -10 8 -23 14 -29 14
-5 0 -1 -6 9 -14z"/>
<path d="M2158 2448 c5 -5 16 -8 23 -6 8 3 3 7 -10 11 -17 4 -21 3 -13 -5z"/>
<path d="M2285 2450 c11 -5 29 -8 40 -8 16 0 15 2 -5 8 -34 11 -60 11 -35 0z"/>
<path d="M812 2430 c1 -13 9 -25 16 -28 17 -5 15 16 -4 35 -14 15 -16 14 -12
-7z"/>
<path d="M1670 2429 c0 -5 5 -7 10 -4 6 3 10 8 10 11 0 2 -4 4 -10 4 -5 0 -10
-5 -10 -11z"/>
<path d="M2676 2415 c-3 -8 -1 -15 4 -15 6 0 10 7 10 15 0 8 -2 15 -4 15 -2 0
-6 -7 -10 -15z"/>
<path d="M2515 2370 c3 -5 13 -10 21 -10 8 0 12 5 9 10 -3 6 -13 10 -21 10 -8
0 -12 -4 -9 -10z"/>
<path d="M1210 2360 c0 -5 5 -10 11 -10 5 0 7 5 4 10 -3 6 -8 10 -11 10 -2 0
-4 -4 -4 -10z"/>
<path d="M2667 2364 c-3 -4 0 -13 8 -21 8 -8 15 -23 15 -34 0 -10 6 -19 14
-19 23 0 25 12 11 48 -13 30 -33 41 -48 26z"/>
<path d="M2504 2305 c-4 -8 -11 -15 -18 -15 -6 0 -24 -11 -40 -23 -34 -28 -28
-50 11 -41 24 6 26 5 20 -22 -6 -30 11 -94 25 -94 4 0 8 -7 8 -16 0 -10 6 -13
18 -10 12 4 25 -3 39 -22 24 -33 38 -72 25 -72 -5 0 -22 -18 -37 -40 -24 -34
-26 -43 -14 -53 7 -7 11 -8 7 -3 -10 12 10 46 27 46 18 0 18 -2 4 -51 -10 -32
-9 -42 5 -64 16 -25 36 -34 36 -16 0 5 -7 16 -15 25 -8 8 -15 17 -15 20 0 3 7
3 15 0 18 -7 17 -13 20 146 2 69 8 145 14 170 25 109 25 107 7 85 -15 -19 -15
-18 -16 24 l0 44 -22 -19 c-19 -17 -21 -17 -15 -1 4 11 1 17 -8 17 -8 0 -15
-8 -15 -17 -1 -17 -1 -17 -11 0 -12 21 -48 23 -55 2z m91 -112 c-3 -31 -7 -58
-10 -61 -3 -3 -5 0 -5 7 0 7 -9 9 -25 5 -14 -3 -25 -2 -25 4 0 5 9 12 20 15
11 3 22 17 25 33 17 75 26 73 20 -3z"/>
<path d="M715 2260 c-3 -5 -2 -10 4 -10 5 0 13 5 16 10 3 6 2 10 -4 10 -5 0
-13 -4 -16 -10z"/>
<path d="M2358 2259 c-26 -15 -22 -36 7 -36 20 0 25 5 25 23 0 26 -6 29 -32
13z"/>
<path d="M775 2220 c3 -5 8 -10 11 -10 2 0 4 5 4 10 0 6 -5 10 -11 10 -5 0 -7
-4 -4 -10z"/>
<path d="M1755 2210 c10 -11 23 -20 28 -20 6 0 1 9 -11 20 -12 11 -24 20 -28
20 -4 0 1 -9 11 -20z"/>
<path d="M1750 2160 c0 -5 5 -10 10 -10 6 0 10 5 10 10 0 6 -4 10 -10 10 -5 0
-10 -4 -10 -10z"/>
<path d="M2470 2070 c-6 -12 -7 -20 -1 -20 5 0 16 -2 24 -5 8 -4 14 0 14 10 0
9 -6 14 -13 11 -8 -3 -11 0 -7 10 8 21 -5 17 -17 -6z"/>
<path d="M1760 1995 c7 -8 9 -15 4 -16 -27 -3 -81 4 -91 12 -6 6 -14 6 -17 1
-3 -5 6 -15 19 -22 14 -7 25 -19 25 -27 0 -23 54 -15 77 11 22 25 15 56 -14
56 -13 0 -13 -3 -3 -15z"/>
<path d="M2497 1975 c-11 -11 -17 -11 -19 -3 -5 13 -68 -26 -68 -41 0 -4 -13
-21 -30 -37 -23 -23 -30 -38 -30 -71 0 -32 4 -43 15 -43 8 0 15 7 15 15 0 8 4
15 10 15 5 0 17 15 26 33 20 38 30 46 54 40 10 -3 21 0 24 6 4 6 2 11 -3 11
-6 0 -11 7 -11 15 0 18 -31 20 -49 3 -11 -11 -13 -10 -9 2 3 8 24 18 49 23 44
9 77 27 49 27 -13 0 -13 2 0 10 9 6 10 10 3 10 -6 0 -18 -7 -26 -15z"/>
<path d="M1370 1913 c0 -6 8 -17 18 -24 16 -13 16 -13 2 6 -8 11 -16 22 -17
24 -2 2 -3 0 -3 -6z"/>
<path d="M1873 1886 c0 -8 8 -14 18 -13 14 1 15 4 7 14 -14 17 -25 16 -25 -1z"/>
<path d="M1415 1870 c3 -5 11 -10 16 -10 6 0 7 5 4 10 -3 6 -11 10 -16 10 -6
0 -7 -4 -4 -10z"/>
<path d="M2465 1839 c-11 -17 -2 -18 19 -3 17 12 17 14 4 14 -9 0 -20 -5 -23
-11z"/>
<path d="M1866 1815 c-20 -15 -20 -15 0 -15 17 0 16 -3 -8 -23 -14 -12 -36
-29 -47 -37 -14 -10 -18 -17 -10 -25 7 -7 13 -5 19 6 11 19 57 14 57 -5 0 -8
-8 -11 -19 -8 -10 2 -18 -1 -18 -8 0 -11 -45 -60 -54 -60 -2 0 -7 11 -10 25
-4 15 -14 25 -24 25 -9 0 -35 9 -56 21 -43 23 -67 21 -43 -3 13 -13 14 -18 4
-26 -9 -8 -16 -6 -24 7 -6 9 -30 23 -54 30 -24 7 -57 18 -74 26 -16 7 -46 16
-65 20 -32 6 -31 5 15 -18 28 -14 85 -42 127 -62 42 -20 79 -43 82 -51 3 -7 0
-13 -6 -11 -7 1 -13 -5 -13 -13 0 -8 -6 -14 -13 -13 -26 6 -10 -19 33 -49 25
-17 43 -33 41 -35 -2 -3 -39 1 -82 6 -44 6 -118 13 -166 15 -76 3 -90 6 -118
30 -42 35 -74 42 -111 23 -36 -17 -76 -12 -59 8 18 22 -11 35 -45 20 -29 -13
-29 -14 -8 -20 26 -8 16 -22 -29 -42 -24 -11 -29 -10 -37 5 -5 10 -20 18 -33
19 -13 0 -17 -1 -10 -4 27 -10 9 -23 -33 -23 -25 0 -45 -4 -45 -10 0 -10 20
-14 55 -10 38 4 8 -10 -41 -19 -27 -5 -57 -13 -67 -16 -13 -6 -16 -3 -11 9 6
14 2 16 -22 10 -38 -9 -43 -14 -14 -14 19 0 21 -2 9 -16 -10 -13 -10 -17 2
-25 19 -12 26 -11 35 2 5 8 9 8 14 -1 6 -10 15 -10 40 -1 20 6 37 7 44 2 7 -6
16 -4 24 5 7 8 8 14 2 14 -5 0 -10 8 -9 18 0 10 3 12 6 5 2 -7 13 -13 23 -13
10 0 22 -4 25 -10 3 -5 18 -10 33 -9 26 0 26 1 5 9 -13 5 -23 14 -23 20 0 6 5
8 11 4 6 -4 37 -8 69 -9 65 -3 120 -24 64 -25 -62 0 -160 -62 -149 -92 8 -21
57 -18 82 4 25 23 73 40 92 33 13 -5 14 -7 1 -15 -8 -6 -25 -10 -37 -10 -13 0
-23 -4 -23 -8 0 -17 12 -21 35 -12 19 7 26 4 39 -15 9 -13 16 -31 16 -39 0
-20 47 -74 71 -81 13 -4 27 -1 38 9 31 28 78 37 93 18 8 -10 9 -13 1 -9 -6 4
-14 3 -17 -2 -4 -5 -2 -13 4 -16 8 -5 7 -11 -1 -21 -6 -8 -8 -14 -3 -14 4 0 0
-6 -10 -13 -16 -12 -16 -14 -2 -14 9 0 16 4 16 7 0 12 54 31 93 33 19 1 32 6
29 11 -3 5 5 7 16 4 12 -4 20 -2 16 3 -3 5 -14 9 -25 9 -10 0 -19 5 -19 11 0
5 4 8 10 4 5 -3 21 -3 36 1 24 6 25 8 11 19 -10 7 -22 27 -28 44 -9 26 -14 29
-25 20 -12 -9 -13 -9 -8 4 7 20 56 37 86 30 17 -3 19 -2 9 5 -7 5 -10 15 -7
21 5 8 11 7 21 -3 24 -24 102 -49 130 -42 31 8 34 36 3 35 -22 0 -22 -1 -3 -9
15 -7 9 -9 -25 -7 -29 1 -45 7 -45 15 0 7 -7 17 -15 22 -20 13 -83 13 -75 0 3
-6 -4 -10 -17 -10 -18 0 -20 2 -8 10 13 8 12 10 -2 10 -10 0 -18 5 -18 10 0 7
29 8 83 4 110 -9 168 -6 183 8 3 4 13 4 22 1 10 -4 13 -2 8 6 -4 6 2 32 13 56
25 54 26 61 4 73 -14 9 -14 11 5 28 13 11 22 30 22 46 0 23 4 28 25 28 28 0
32 16 11 45 -7 11 -17 35 -21 53 -3 18 -13 32 -21 32 -8 0 -14 5 -14 10 0 14
-22 12 -44 -5z m51 -21 c-3 -3 -12 -4 -19 -1 -8 3 -5 6 6 6 11 1 17 -2 13 -5z
m0 -96 c-3 -8 -6 -5 -6 6 -1 11 2 17 5 13 3 -3 4 -12 1 -19z m-227 -103 c7 -8
8 -15 2 -15 -5 0 -15 7 -22 15 -7 8 -8 15 -2 15 5 0 15 -7 22 -15z m-765 -105
c-3 -5 -11 -10 -16 -10 -6 0 -7 5 -4 10 3 6 11 10 16 10 6 0 7 -4 4 -10z m338
-80 c3 -11 3 -20 1 -20 -2 0 -8 9 -14 20 -6 11 -7 20 -2 20 6 0 12 -9 15 -20z
m297 -20 c0 -5 -8 -10 -17 -10 -15 0 -16 2 -3 10 19 12 20 12 20 0z m153 3
c-7 -2 -19 -2 -25 0 -7 3 -2 5 12 5 14 0 19 -2 13 -5z m-223 -37 c0 -2 -8 -10
-17 -17 -16 -13 -17 -12 -4 4 13 16 21 21 21 13z m40 -126 c0 -5 -4 -10 -10
-10 -5 0 -10 5 -10 10 0 6 5 10 10 10 6 0 10 -4 10 -10z"/>
<path d="M2506 1821 c-4 -5 -8 -50 -10 -99 -4 -73 -2 -92 10 -96 12 -5 12 -2
3 15 -12 23 -9 23 38 -6 36 -22 44 -40 14 -32 -17 4 -18 2 -8 -14 6 -10 15
-19 20 -19 4 0 6 -15 4 -32 -4 -35 -33 -51 -48 -26 -7 10 -9 9 -9 -4 0 -10 5
-18 11 -18 5 0 8 -4 5 -9 -3 -5 6 -8 20 -8 14 0 28 6 31 13 3 8 9 11 14 8 5
-3 9 2 9 10 0 9 -4 16 -8 16 -5 0 -10 20 -10 44 -2 43 11 69 40 78 7 3 8 10 4
17 -7 11 -10 11 -17 0 -13 -21 -21 -4 -21 41 1 28 -6 48 -23 68 -23 27 -23 27
-45 7 -16 -14 -21 -15 -18 -5 2 8 12 20 22 26 19 11 19 12 -2 23 -12 6 -23 7
-26 2z"/>
<path d="M1520 1806 c0 -3 9 -10 20 -16 11 -6 20 -8 20 -6 0 3 -9 10 -20 16
-11 6 -20 8 -20 6z"/>
<path d="M2615 1781 c-3 -5 -1 -12 5 -16 5 -3 10 1 10 9 0 18 -6 21 -15 7z"/>
<path d="M1617 1749 c7 -7 15 -10 18 -7 3 3 -2 9 -12 12 -14 6 -15 5 -6 -5z"/>
<path d="M2455 1750 c-3 -5 -1 -10 4 -10 6 0 11 5 11 10 0 6 -2 10 -4 10 -3 0
-8 -4 -11 -10z"/>
<path d="M870 1703 c0 -5 -11 -16 -25 -23 -26 -14 -35 -36 -11 -27 10 4 14 0
13 -13 -1 -10 -5 -16 -9 -14 -4 3 -8 0 -8 -5 0 -6 -4 -11 -8 -11 -5 0 -8 10
-8 21 1 12 -5 24 -13 27 -8 3 -11 0 -7 -7 4 -6 3 -11 -3 -11 -5 0 -8 -8 -7
-17 2 -14 14 -18 52 -19 26 -1 50 -7 52 -13 2 -6 10 -11 18 -11 9 0 13 4 9 9
-3 5 -1 12 5 16 6 4 7 11 4 17 -4 7 -2 8 4 4 7 -4 12 -13 12 -21 0 -10 17 -13
70 -12 62 1 69 4 64 19 -3 10 0 18 6 18 7 0 10 7 7 15 -4 8 4 22 18 33 l23 18
-31 0 c-18 0 -76 4 -129 8 -61 5 -98 5 -98 -1z"/>
<path d="M2390 1701 c0 -6 5 -13 10 -16 6 -3 10 -12 10 -18 0 -7 -4 -6 -10 3
-7 11 -10 8 -10 -15 0 -17 6 -37 13 -44 10 -11 10 -13 0 -7 -7 4 -13 2 -13 -4
0 -6 7 -13 15 -16 8 -4 13 -10 10 -14 -3 -4 6 -15 20 -24 24 -16 25 -48 2 -43
-6 1 -12 -4 -13 -10 -3 -27 -5 -27 -18 2 l-13 30 -6 -51 c-7 -52 0 -88 18 -91
7 -1 9 12 7 32 -2 19 1 36 9 40 9 6 11 3 6 -8 -3 -10 -2 -17 2 -17 5 0 12 6
14 13 4 9 6 8 6 -2 1 -8 -7 -20 -16 -27 -17 -13 -17 -14 0 -8 17 6 16 2 -5
-39 -17 -33 -24 -40 -26 -26 -5 26 -22 24 -22 -2 0 -12 8 -23 20 -26 17 -4 20
-14 20 -54 0 -39 23 -112 48 -148 1 -3 10 3 19 12 10 10 17 32 16 54 0 21 2
31 6 21 5 -15 9 -14 32 5 34 28 44 60 25 80 -8 8 -18 26 -22 41 -5 23 -3 26
17 26 20 -1 21 -2 7 -10 -14 -9 -13 -13 12 -40 32 -34 47 -38 53 -12 8 33 7
72 -3 72 -5 0 -18 10 -30 22 -17 18 -20 19 -20 5 0 -9 -5 -17 -11 -17 -6 0 -9
9 -6 20 3 10 -1 24 -9 31 -15 12 -18 7 -14 -26 l2 -20 -16 20 c-18 23 -21 39
-5 29 15 -9 1 37 -15 51 -7 6 -18 26 -26 45 -7 19 -24 47 -38 62 -13 14 -25
30 -25 35 -1 4 -5 7 -9 6 -14 -5 -9 18 7 33 22 23 19 54 -5 54 -11 0 -20 -4
-20 -9z m105 -415 c8 -18 7 -18 -12 1 -17 17 -19 29 -14 74 l5 54 7 -55 c3
-30 9 -64 14 -74z"/>
<path d="M1564 1631 c4 -6 16 -16 28 -22 15 -8 18 -8 14 0 -4 6 -16 16 -28 22
-15 8 -18 8 -14 0z"/>
<path d="M2630 1535 c1 -26 2 -28 11 -12 8 14 8 22 0 30 -8 8 -11 3 -11 -18z"/>
<path d="M2630 1442 c0 -18 34 -32 51 -21 12 9 12 10 -1 6 -8 -2 -23 2 -32 11
-11 9 -18 11 -18 4z"/>
<path d="M898 1408 c9 -9 15 -9 24 0 9 9 7 12 -12 12 -19 0 -21 -3 -12 -12z"/>
<path d="M2610 1390 c0 -6 7 -10 15 -10 8 0 15 2 15 4 0 2 -7 6 -15 10 -8 3
-15 1 -15 -4z"/>
<path d="M2380 1268 c0 -9 -2 -22 -5 -30 -3 -7 9 -29 27 -48 19 -21 29 -27 24
-15 -5 11 -12 35 -16 54 -10 38 -30 65 -30 39z"/>
<path d="M1251 1214 c0 -11 3 -14 6 -6 3 7 2 16 -1 19 -3 4 -6 -2 -5 -13z"/>
</g>
</svg>
